<?xml version="1.0" encoding="UTF-8" standalone="no"?>
<!DOCTYPE svg PUBLIC "-//W3C//DTD SVG 1.1//EN"
 "http://www.w3.org/Graphics/SVG/1.1/DTD/svg11.dtd">
<!-- Generated by graphviz version 2.42.3 (20191010.1750)
 -->
<!-- Title: snakemake_dag Pages: 1 -->
<svg width="415pt" height="692pt"
 viewBox="0.00 0.00 414.50 692.00" xmlns="http://www.w3.org/2000/svg" xmlns:xlink="http://www.w3.org/1999/xlink">
<g id="graph0" class="graph" transform="scale(1 1) rotate(0) translate(4 688)">
<title>snakemake_dag</title>
<polygon fill="white" stroke="transparent" points="-4,4 -4,-688 410.5,-688 410.5,4 -4,4"/>
<!-- 0 -->
<g id="node1" class="node">
<title>0</title>
<path fill="none" stroke="#56d87b" stroke-width="2" stroke-dasharray="5,2" d="M177.5,-36C177.5,-36 147.5,-36 147.5,-36 141.5,-36 135.5,-30 135.5,-24 135.5,-24 135.5,-12 135.5,-12 135.5,-6 141.5,0 147.5,0 147.5,0 177.5,0 177.5,0 183.5,0 189.5,-6 189.5,-12 189.5,-12 189.5,-24 189.5,-24 189.5,-30 183.5,-36 177.5,-36"/>
<text text-anchor="middle" x="162.5" y="-15.5" font-family="sans" font-size="10.00">all</text>
</g>
<!-- 1 -->
<g id="node2" class="node">
<title>1</title>
<path fill="none" stroke="#d85656" stroke-width="2" stroke-dasharray="5,2" d="M49,-252C49,-252 12,-252 12,-252 6,-252 0,-246 0,-240 0,-240 0,-228 0,-228 0,-222 6,-216 12,-216 12,-216 49,-216 49,-216 55,-216 61,-222 61,-228 61,-228 61,-240 61,-240 61,-246 55,-252 49,-252"/>
<text text-anchor="middle" x="30.5" y="-231.5" font-family="sans" font-size="10.00">vcf_stats</text>
</g>
<!-- 1&#45;&gt;0 -->
<g id="edge1" class="edge">
<title>1&#45;&gt;0</title>
<path fill="none" stroke="grey" stroke-width="2" d="M35.85,-215.83C45.97,-185.03 70.04,-119.21 104.5,-72 112.23,-61.41 122.33,-51.31 131.93,-42.81"/>
<polygon fill="grey" stroke="grey" stroke-width="2" points="134.48,-45.23 139.81,-36.08 129.93,-39.91 134.48,-45.23"/>
</g>
<!-- 6 -->
<g id="node7" class="node">
<title>6</title>
<path fill="none" stroke="#56d8c9" stroke-width="2" stroke-dasharray="5,2" d="M222.5,-180C222.5,-180 102.5,-180 102.5,-180 96.5,-180 90.5,-174 90.5,-168 90.5,-168 90.5,-156 90.5,-156 90.5,-150 96.5,-144 102.5,-144 102.5,-144 222.5,-144 222.5,-144 228.5,-144 234.5,-150 234.5,-156 234.5,-156 234.5,-168 234.5,-168 234.5,-174 228.5,-180 222.5,-180"/>
<text text-anchor="middle" x="162.5" y="-159.5" font-family="sans" font-size="10.00">merge_vep_with_samples</text>
</g>
<!-- 1&#45;&gt;6 -->
<g id="edge9" class="edge">
<title>1&#45;&gt;6</title>
<path fill="none" stroke="grey" stroke-width="2" d="M61.12,-216.76C79,-207.28 101.8,-195.19 121.25,-184.87"/>
<polygon fill="grey" stroke="grey" stroke-width="2" points="123.01,-187.9 130.21,-180.12 119.73,-181.72 123.01,-187.9"/>
</g>
<!-- 2 -->
<g id="node3" class="node">
<title>2</title>
<path fill="none" stroke="#567bd8" stroke-width="2" stroke-dasharray="5,2" d="M254.5,-540C254.5,-540 108.5,-540 108.5,-540 102.5,-540 96.5,-534 96.5,-528 96.5,-528 96.5,-516 96.5,-516 96.5,-510 102.5,-504 108.5,-504 108.5,-504 254.5,-504 254.5,-504 260.5,-504 266.5,-510 266.5,-516 266.5,-516 266.5,-528 266.5,-528 266.5,-534 260.5,-540 254.5,-540"/>
<text text-anchor="middle" x="181.5" y="-519.5" font-family="sans" font-size="10.00">variants_in_vcf_by_ensembl_id</text>
</g>
<!-- 2&#45;&gt;1 -->
<g id="edge4" class="edge">
<title>2&#45;&gt;1</title>
<path fill="none" stroke="grey" stroke-width="2" d="M153.78,-503.92C140.67,-494.66 125.69,-482.21 115.5,-468 68.58,-402.56 44.85,-308.39 35.47,-262.39"/>
<polygon fill="grey" stroke="grey" stroke-width="2" points="38.85,-261.43 33.49,-252.29 31.98,-262.78 38.85,-261.43"/>
</g>
<!-- 10 -->
<g id="node11" class="node">
<title>10</title>
<path fill="none" stroke="#d87d56" stroke-width="2" stroke-dasharray="5,2" d="M232,-468C232,-468 137,-468 137,-468 131,-468 125,-462 125,-456 125,-456 125,-444 125,-444 125,-438 131,-432 137,-432 137,-432 232,-432 232,-432 238,-432 244,-438 244,-444 244,-444 244,-456 244,-456 244,-462 238,-468 232,-468"/>
<text text-anchor="middle" x="184.5" y="-447.5" font-family="sans" font-size="10.00">change_chr_field_vcf</text>
</g>
<!-- 2&#45;&gt;10 -->
<g id="edge13" class="edge">
<title>2&#45;&gt;10</title>
<path fill="none" stroke="grey" stroke-width="2" d="M182.24,-503.7C182.57,-495.98 182.97,-486.71 183.34,-478.11"/>
<polygon fill="grey" stroke="grey" stroke-width="2" points="186.84,-478.25 183.77,-468.1 179.84,-477.95 186.84,-478.25"/>
</g>
<!-- 3 -->
<g id="node4" class="node">
<title>3</title>
<path fill="none" stroke="#56c9d8" stroke-width="2" stroke-dasharray="5,2" d="M222.5,-612C222.5,-612 140.5,-612 140.5,-612 134.5,-612 128.5,-606 128.5,-600 128.5,-600 128.5,-588 128.5,-588 128.5,-582 134.5,-576 140.5,-576 140.5,-576 222.5,-576 222.5,-576 228.5,-576 234.5,-582 234.5,-588 234.5,-588 234.5,-600 234.5,-600 234.5,-606 228.5,-612 222.5,-612"/>
<text text-anchor="middle" x="181.5" y="-591.5" font-family="sans" font-size="10.00">taint_ensembl_ids</text>
</g>
<!-- 3&#45;&gt;2 -->
<g id="edge5" class="edge">
<title>3&#45;&gt;2</title>
<path fill="none" stroke="grey" stroke-width="2" d="M181.5,-575.7C181.5,-567.98 181.5,-558.71 181.5,-550.11"/>
<polygon fill="grey" stroke="grey" stroke-width="2" points="185,-550.1 181.5,-540.1 178,-550.1 185,-550.1"/>
</g>
<!-- 4 -->
<g id="node5" class="node">
<title>4</title>
<path fill="none" stroke="#d8a456" stroke-width="2" stroke-dasharray="5,2" d="M238.5,-684C238.5,-684 124.5,-684 124.5,-684 118.5,-684 112.5,-678 112.5,-672 112.5,-672 112.5,-660 112.5,-660 112.5,-654 118.5,-648 124.5,-648 124.5,-648 238.5,-648 238.5,-648 244.5,-648 250.5,-654 250.5,-660 250.5,-660 250.5,-672 250.5,-672 250.5,-678 244.5,-684 238.5,-684"/>
<text text-anchor="middle" x="181.5" y="-663.5" font-family="sans" font-size="10.00">get_variant_number_v11</text>
</g>
<!-- 4&#45;&gt;3 -->
<g id="edge6" class="edge">
<title>4&#45;&gt;3</title>
<path fill="none" stroke="grey" stroke-width="2" d="M181.5,-647.7C181.5,-639.98 181.5,-630.71 181.5,-622.11"/>
<polygon fill="grey" stroke="grey" stroke-width="2" points="185,-622.1 181.5,-612.1 178,-622.1 185,-622.1"/>
</g>
<!-- 11 -->
<g id="node12" class="node">
<title>11</title>
<path fill="none" stroke="#9fd856" stroke-width="2" stroke-dasharray="5,2" d="M351.5,-612C351.5,-612 321.5,-612 321.5,-612 315.5,-612 309.5,-606 309.5,-600 309.5,-600 309.5,-588 309.5,-588 309.5,-582 315.5,-576 321.5,-576 321.5,-576 351.5,-576 351.5,-576 357.5,-576 363.5,-582 363.5,-588 363.5,-588 363.5,-600 363.5,-600 363.5,-606 357.5,-612 351.5,-612"/>
<text text-anchor="middle" x="336.5" y="-591.5" font-family="sans" font-size="10.00">report</text>
</g>
<!-- 4&#45;&gt;11 -->
<g id="edge15" class="edge">
<title>4&#45;&gt;11</title>
<path fill="none" stroke="grey" stroke-width="2" d="M219.42,-647.88C243.94,-636.8 275.7,-622.46 299.95,-611.5"/>
<polygon fill="grey" stroke="grey" stroke-width="2" points="301.51,-614.64 309.18,-607.34 298.63,-608.26 301.51,-614.64"/>
</g>
<!-- 5 -->
<g id="node6" class="node">
<title>5</title>
<path fill="none" stroke="#59d856" stroke-width="2" stroke-dasharray="5,2" d="M199,-108C199,-108 126,-108 126,-108 120,-108 114,-102 114,-96 114,-96 114,-84 114,-84 114,-78 120,-72 126,-72 126,-72 199,-72 199,-72 205,-72 211,-78 211,-84 211,-84 211,-96 211,-96 211,-102 205,-108 199,-108"/>
<text text-anchor="middle" x="162.5" y="-87.5" font-family="sans" font-size="10.00">plot_vep_results</text>
</g>
<!-- 5&#45;&gt;0 -->
<g id="edge2" class="edge">
<title>5&#45;&gt;0</title>
<path fill="none" stroke="grey" stroke-width="2" d="M162.5,-71.7C162.5,-63.98 162.5,-54.71 162.5,-46.11"/>
<polygon fill="grey" stroke="grey" stroke-width="2" points="166,-46.1 162.5,-36.1 159,-46.1 166,-46.1"/>
</g>
<!-- 6&#45;&gt;5 -->
<g id="edge7" class="edge">
<title>6&#45;&gt;5</title>
<path fill="none" stroke="grey" stroke-width="2" d="M162.5,-143.7C162.5,-135.98 162.5,-126.71 162.5,-118.11"/>
<polygon fill="grey" stroke="grey" stroke-width="2" points="166,-118.1 162.5,-108.1 159,-118.1 166,-118.1"/>
</g>
<!-- 7 -->
<g id="node8" class="node">
<title>7</title>
<path fill="none" stroke="#56d8a2" stroke-width="2" stroke-dasharray="5,2" d="M296,-252C296,-252 91,-252 91,-252 85,-252 79,-246 79,-240 79,-240 79,-228 79,-228 79,-222 85,-216 91,-216 91,-216 296,-216 296,-216 302,-216 308,-222 308,-228 308,-228 308,-240 308,-240 308,-246 302,-252 296,-252"/>
<text text-anchor="middle" x="193.5" y="-231.5" font-family="sans" font-size="10.00">change_comment_character_in_vep_output</text>
</g>
<!-- 7&#45;&gt;6 -->
<g id="edge8" class="edge">
<title>7&#45;&gt;6</title>
<path fill="none" stroke="grey" stroke-width="2" d="M185.84,-215.7C182.31,-207.73 178.04,-198.1 174.13,-189.26"/>
<polygon fill="grey" stroke="grey" stroke-width="2" points="177.32,-187.83 170.07,-180.1 170.92,-190.67 177.32,-187.83"/>
</g>
<!-- 8 -->
<g id="node9" class="node">
<title>8</title>
<path fill="none" stroke="#c6d856" stroke-width="2" stroke-dasharray="5,2" d="M222.5,-324C222.5,-324 152.5,-324 152.5,-324 146.5,-324 140.5,-318 140.5,-312 140.5,-312 140.5,-300 140.5,-300 140.5,-294 146.5,-288 152.5,-288 152.5,-288 222.5,-288 222.5,-288 228.5,-288 234.5,-294 234.5,-300 234.5,-300 234.5,-312 234.5,-312 234.5,-318 228.5,-324 222.5,-324"/>
<text text-anchor="middle" x="187.5" y="-303.5" font-family="sans" font-size="10.00">run_vep_docker</text>
</g>
<!-- 8&#45;&gt;7 -->
<g id="edge10" class="edge">
<title>8&#45;&gt;7</title>
<path fill="none" stroke="grey" stroke-width="2" d="M188.98,-287.7C189.64,-279.98 190.44,-270.71 191.18,-262.11"/>
<polygon fill="grey" stroke="grey" stroke-width="2" points="194.67,-262.37 192.03,-252.1 187.69,-261.77 194.67,-262.37"/>
</g>
<!-- 9 -->
<g id="node10" class="node">
<title>9</title>
<path fill="none" stroke="#d8c356" stroke-width="2" stroke-dasharray="5,2" d="M228,-396C228,-396 143,-396 143,-396 137,-396 131,-390 131,-384 131,-384 131,-372 131,-372 131,-366 137,-360 143,-360 143,-360 228,-360 228,-360 234,-360 240,-366 240,-372 240,-372 240,-384 240,-384 240,-390 234,-396 228,-396"/>
<text text-anchor="middle" x="185.5" y="-375.5" font-family="sans" font-size="10.00">add_header_to_vcf</text>
</g>
<!-- 9&#45;&gt;8 -->
<g id="edge11" class="edge">
<title>9&#45;&gt;8</title>
<path fill="none" stroke="grey" stroke-width="2" d="M185.99,-359.7C186.21,-351.98 186.48,-342.71 186.73,-334.11"/>
<polygon fill="grey" stroke="grey" stroke-width="2" points="190.22,-334.2 187.01,-324.1 183.23,-334 190.22,-334.2"/>
</g>
<!-- 10&#45;&gt;9 -->
<g id="edge12" class="edge">
<title>10&#45;&gt;9</title>
<path fill="none" stroke="grey" stroke-width="2" d="M184.75,-431.7C184.86,-423.98 184.99,-414.71 185.11,-406.11"/>
<polygon fill="grey" stroke="grey" stroke-width="2" points="188.61,-406.15 185.26,-396.1 181.61,-406.05 188.61,-406.15"/>
</g>
<!-- 11&#45;&gt;0 -->
<g id="edge3" class="edge">
<title>11&#45;&gt;0</title>
<path fill="none" stroke="grey" stroke-width="2" d="M336.5,-575.95C336.5,-549.29 336.5,-496.11 336.5,-451 336.5,-451 336.5,-451 336.5,-161 336.5,-90.82 250.48,-49.13 199.4,-30.56"/>
<polygon fill="grey" stroke="grey" stroke-width="2" points="200.28,-27.16 189.69,-27.15 197.97,-33.76 200.28,-27.16"/>
</g>
<!-- 12 -->
<g id="node13" class="node">
<title>12</title>
<path fill="none" stroke="#78d856" stroke-width="2" stroke-dasharray="5,2" d="M394.5,-684C394.5,-684 280.5,-684 280.5,-684 274.5,-684 268.5,-678 268.5,-672 268.5,-672 268.5,-660 268.5,-660 268.5,-654 274.5,-648 280.5,-648 280.5,-648 394.5,-648 394.5,-648 400.5,-648 406.5,-654 406.5,-660 406.5,-660 406.5,-672 406.5,-672 406.5,-678 400.5,-684 394.5,-684"/>
<text text-anchor="middle" x="337.5" y="-663.5" font-family="sans" font-size="10.00">get_variant_number_v10</text>
</g>
<!-- 12&#45;&gt;11 -->
<g id="edge14" class="edge">
<title>12&#45;&gt;11</title>
<path fill="none" stroke="grey" stroke-width="2" d="M337.25,-647.7C337.14,-639.98 337.01,-630.71 336.89,-622.11"/>
<polygon fill="grey" stroke="grey" stroke-width="2" points="340.39,-622.05 336.74,-612.1 333.39,-622.15 340.39,-622.05"/>
</g>
</g>
</svg>
